# xmcd
#
# Track frame offsets: 
#        150
#        15575
#        31351
#        49196
#        65461
#        76112
#        89199
#        105582
#        119013
#        133908
#        147198
#        162254
#
# Disc length: 2315 seconds
#
# Revision: 0
# Processed by: cddbd v1.5.2PL0 Copyright (c) Steve Scherf et al.
# Submitted via: ExactAudioCopyFreeDBPlugin 1.0
#
DISCID=a509090c
DTITLE=David Serby - I Just Don't Go Home
DYEAR=2006
DGENRE=Country
TTITLE0=Red Lipstick And French Perfume
TTITLE1=Santa Ana Winds
TTITLE2=Dirt Beneath My Nails
TTITLE3=I Just Don't Go Home
TTITLE4=Solitaire
TTITLE5=Down To The Felt
TTITLE6=I Learned My Lesson
TTITLE7=Cannonball Trail
TTITLE8=Do You Feel Lucky Tonight?
TTITLE9=Our Last Resort
TTITLE10=Crooked Little Smile
TTITLE11=The Day That We Moved In
EXTD=
EXTT0=
EXTT1=
EXTT2=
EXTT3=
EXTT4=
EXTT5=
EXTT6=
EXTT7=
EXTT8=
EXTT9=
EXTT10=
EXTT11=
PLAYORDER=
